Coordinates
version=1
nRows=60
nColumns=12
inDegrees=yes

Units are S.I. units (second, meters, Newtons, ...)
Angles are in degrees

endheader
time	SC_y	SC_z	SC_x	AC_y	AC_z	AC_x	GH_y	GH_z	GH_yy	EL_x	PS_y
       0.0              -41.88          12.12          40.02          59.76         -11.87         -2.386          88.49          1.738          169.4          14.01          10.83
  0.007682              -41.88          12.12          40.02          59.76         -11.87         -2.384          88.47          1.737          169.4          14.01          10.85
   0.01536              -41.88          12.12          40.02          59.75         -11.87         -2.382          88.45          1.736          169.4          14.01          10.87
   0.02304              -41.88          12.12          40.02          59.75         -11.87         -2.379          88.43          1.735          169.3          14.02          10.89
   0.03073              -41.88          12.11          40.02          59.75         -11.87         -2.377           88.4          1.734          169.3          14.02          10.92
   0.03841              -41.88          12.11          40.02          59.74         -11.87         -2.374          88.38          1.733          169.2          14.03          10.95
   0.04609              -41.88          12.11          40.02          59.74         -11.87         -2.371          88.35          1.732          169.2          14.03          10.97
   0.05377              -41.88          12.11          40.03          59.74         -11.86         -2.367          88.32          1.731          169.1          14.04          11.01
   0.06145              -41.88          12.11          40.03          59.73         -11.86         -2.364          88.29          1.729          169.1          14.05          11.04
   0.06913              -41.88           12.1          40.03          59.73         -11.86          -2.36          88.26          1.728          169.0          14.05          11.07
   0.07682              -41.88           12.1          40.03          59.72         -11.86         -2.356          88.22          1.726          169.0          14.06          11.11
    0.0845              -41.88           12.1          40.03          59.72         -11.86         -2.352          88.18          1.725          168.9          14.07          11.15
   0.09218              -41.88           12.1          40.03          59.71         -11.86         -2.347          88.14          1.723          168.8          14.08          11.19
   0.09986              -41.88          12.09          40.03           59.7         -11.86         -2.342          88.09          1.721          168.7          14.09          11.24
    0.1075              -41.88          12.09          40.03           59.7         -11.86         -2.337          88.04          1.719          168.7           14.1          11.29
    0.1152              -41.87          12.09          40.03          59.69         -11.85         -2.331          87.99          1.717          168.6          14.11          11.35
    0.1229              -41.87          12.08          40.03          59.68         -11.85         -2.324          87.93          1.714          168.5          14.12          11.41
    0.1306              -41.87          12.08          40.03          59.67         -11.85         -2.317          87.87          1.712          168.4          14.13          11.47
    0.1383              -41.87          12.07          40.04          59.66         -11.85          -2.31           87.8          1.709          168.2          14.15          11.54
     0.146              -41.87          12.07          40.04          59.65         -11.84         -2.301          87.73          1.706          168.1          14.16          11.62
    0.1536              -41.87          12.06          40.04          59.64         -11.84         -2.292          87.64          1.702          168.0          14.18          11.71
    0.1613              -41.87          12.06          40.04          59.63         -11.84         -2.282          87.55          1.698          167.8           14.2           11.8
     0.169              -41.86          12.05          40.04          59.62         -11.84         -2.271          87.45          1.694          167.6          14.22          11.91
    0.1767              -41.86          12.04          40.04           59.6         -11.83         -2.258          87.34          1.689          167.4          14.24          12.02
    0.1844              -41.86          12.03          40.05          59.58         -11.83         -2.245          87.21          1.684          167.2          14.26          12.15
     0.192              -41.86          12.02          40.05          59.56         -11.82         -2.229          87.08          1.678          167.0          14.29          12.29
    0.1997              -41.85          12.01          40.05          59.54         -11.82         -2.212          86.92          1.672          166.7          14.32          12.45
    0.2074              -41.85           12.0          40.06          59.52         -11.81         -2.193          86.75          1.664          166.4          14.36          12.63
    0.2151              -41.85          11.99          40.06          59.49         -11.81         -2.171          86.55          1.656          166.1           14.4          12.84
    0.2228              -41.84          11.97          40.06          59.46          -11.8         -2.146          86.33          1.647          165.7          14.45          13.07
    0.2304              -41.84          11.95          40.07          59.43         -11.79         -2.118          86.07          1.636          165.2           14.5          13.33
    0.2381              -41.83          11.93          40.07          59.39         -11.78         -2.085          85.78          1.624          164.7          14.56          13.64
    0.2458              -41.83          11.91          40.08          59.34         -11.77         -2.048          85.44          1.609          164.2          14.63          13.99
    0.2535              -41.82          11.88          40.09          59.29         -11.76         -2.004          85.04          1.593          163.5          14.71          14.39
    0.2612              -41.81          11.85           40.1          59.22         -11.74         -1.953          84.58          1.573          162.7           14.8          14.87
    0.2689               -41.8          11.82          40.11          59.15         -11.72         -1.893          84.04          1.551          161.7          14.91          15.43
    0.2765              -41.79          11.77          40.12          59.06          -11.7         -1.821           83.4          1.523          160.6          15.04           16.1
    0.2842              -41.77          11.72          40.14          58.95         -11.68         -1.735          82.62          1.491          159.3           15.2           16.9
    0.2919              -41.75          11.65          40.15          58.83         -11.65         -1.632          81.69          1.452          157.7          15.39          17.87
    0.2996              -41.73          11.58          40.18          58.67         -11.61         -1.505          80.54          1.403          155.7          15.62          19.05
    0.3073               -41.7          11.48           40.2          58.48         -11.56         -1.348          79.13          1.344          153.3          15.91          20.51
    0.3149              -41.67          11.36          40.24          58.23          -11.5         -1.153          77.38           1.27          150.3          16.27          22.33
    0.3226              -41.63          11.21          40.28          57.93         -11.43        -0.9077          75.16          1.177          146.4          16.72          24.62
    0.3303              -41.57          11.01          40.34          57.54         -11.34        -0.5953          72.34          1.058          141.6          17.29          27.53
     0.338               -41.5          10.77           40.4          57.05         -11.22        -0.1955          68.74         0.9067          135.4          18.02          31.26
    0.3457              -41.41          10.45          40.49          56.41         -11.07         0.3176          64.11         0.7121          127.4          18.96          36.04
    0.3534               -41.3          10.04          40.61           55.6         -10.87          0.973          58.21         0.4635          117.2          20.16          42.15
     0.361              -41.16          9.536          40.75          54.59         -10.63          1.797          50.78         0.1509          104.4          21.68          49.83
    0.3687              -40.98          8.915          40.93          53.34         -10.33          2.801          41.72          -0.23          88.76          23.52           59.2
    0.3764              -40.78          8.196          41.13           51.9         -9.982          3.965          31.23        -0.6716          70.66          25.65          70.05
    0.3841              -40.56          7.417          41.35          50.35         -9.607          5.226          19.87          -1.15          51.06          27.96           81.8
    0.3918              -40.34          6.638          41.57          48.79         -9.233          6.486          8.504         -1.628          31.46          30.27          93.55
    0.3994              -40.14          5.919          41.78          47.35         -8.887           7.65          -1.99         -2.069          13.36          32.41          104.4
    0.4071              -39.96          5.299          41.95          46.11         -8.588          8.654         -11.04          -2.45         -2.255          34.25          113.8
    0.4148              -39.82           4.79           42.1          45.09         -8.343          9.478         -18.47         -2.763         -15.07          35.76          121.5
    0.4225              -39.71          4.385          42.21          44.28         -8.148          10.13         -24.38         -3.011         -25.26          36.96          127.6
    0.4302              -39.62          4.068           42.3          43.64         -7.996          10.65         -29.01         -3.206         -33.24           37.9          132.3
    0.4379              -39.55          3.821          42.37          43.15         -7.877          11.05         -32.61         -3.358         -39.46          38.64          136.1
    0.4455              -39.49          3.628          42.42          42.76         -7.784          11.36         -35.43         -3.476         -44.31          39.21          139.0
    0.4532              -39.45          3.476          42.47          42.46         -7.711           11.6         -37.64         -3.569         -48.13          39.66          141.3
